<svg xmlns="http://www.w3.org/2000/svg" width="228" height="53" viewBox="0 0 228 53">
    <g fill="#FFF" fill-rule="evenodd">
        <path d="M197.81 42.573c0-1.056-.89-1.879-2.042-1.879-1.15 0-2.04.823-2.04 1.88 0 1.054.89 1.877 2.04 1.877 1.152 0 2.042-.823 2.042-1.878zm-.318 0c0 .9-.735 1.612-1.724 1.612-.986 0-1.725-.713-1.725-1.612 0-.899.74-1.61 1.725-1.61.99 0 1.724.711 1.724 1.61zm-.68 1.087l-.702-.966c.318-.05.592-.22.592-.606 0-.388-.237-.6-.769-.6h-.904v2.172h.291v-.966h.487l.665.966h.34zm-1.109-1.193h-.383v-.753h.531c.285 0 .56.071.56.374 0 .37-.35.38-.708.38zm-2.865 6.61l.118-.498a2.24 2.24 0 0 1-.423.097c-.188.027-.328.04-.425.04-.292 0-.5-.052-.624-.156-.12-.106-.186-.303-.186-.595 0-.117.023-.282.065-.494.04-.212.084-.4.13-.564l.642-2.46c.063-.229.106-.463.135-.696.027-.236.041-.4.041-.492 0-.46-.13-.83-.39-1.115-.263-.283-.638-.426-1.127-.426-.563 0-1.058.118-1.483.354-.424.233-.907.578-1.452 1.033h-.03a1.497 1.497 0 0 0-.48-.992c-.28-.263-.652-.395-1.107-.395-.536 0-.998.103-1.386.307-.389.204-.885.544-1.488 1.02h-.045c-.012-.38-.102-.683-.273-.902-.172-.223-.462-.333-.872-.333-.22 0-.48.044-.792.131a8.12 8.12 0 0 0-1.057.402l-.116.493c.098-.028.235-.06.41-.104.174-.043.32-.064.43-.064.282 0 .471.047.567.14.096.095.145.291.145.587 0 .143-.018.316-.057.521a18.4 18.4 0 0 1-.118.574l-1.145 4.962h1.428l1.307-5.627c.464-.502.87-.826 1.223-.97.35-.145.671-.219.961-.219.32 0 .561.096.727.285.166.187.248.45.248.781 0 .061-.01.155-.036.278-.02.126-.046.244-.07.358l-1.206 5.114h1.424l1.34-5.68c.411-.436.777-.735 1.101-.895.326-.16.656-.24.996-.24.318 0 .55.1.697.298.148.2.22.471.22.813 0 .11-.016.251-.05.43a8.82 8.82 0 0 1-.135.598l-.755 2.86c-.046.183-.08.342-.1.477-.02.137-.03.26-.03.373 0 .313.101.574.308.785.207.214.516.318.928.318.203 0 .445-.038.73-.112a9.836 9.836 0 0 0 1.137-.4zm-13.414-5.64c.04-.17.063-.329.063-.47 0-.267-.028-.469-.08-.61a1.03 1.03 0 0 0-.25-.37.946.946 0 0 0-.393-.207 1.767 1.767 0 0 0-1.465.253c-.313.211-.777.581-1.385 1.11h-.045c0-.445-.087-.777-.26-1-.175-.222-.465-.333-.872-.333-.22 0-.483.045-.788.134a7.708 7.708 0 0 0-1.056.406l-.114.501c.096-.028.231-.063.404-.105.173-.04.315-.063.428-.063.29 0 .482.05.581.145.096.097.144.29.144.575 0 .115-.024.298-.073.542-.05.244-.087.428-.11.551l-1.114 4.956h1.428l1.231-5.482a5.93 5.93 0 0 1 .817-.774c.254-.193.483-.34.685-.437.201-.097.371-.16.511-.195.142-.033.244-.049.305-.049-.082.193-.16.387-.237.583a1.48 1.48 0 0 0-.115.53c0 .167.068.321.205.457.136.138.341.205.615.205.201 0 .36-.037.468-.11.107-.074.208-.18.298-.318a1.22 1.22 0 0 0 .174-.425zm-7.772 3.102a5.662 5.662 0 0 0 .305-1.808c0-.9-.256-1.627-.766-2.182-.515-.554-1.225-.83-2.13-.83-.656 0-1.268.136-1.829.408a4.314 4.314 0 0 0-1.417 1.08 5.14 5.14 0 0 0-.902 1.546 5.232 5.232 0 0 0-.336 1.901c0 .924.262 1.661.79 2.208.527.546 1.214.82 2.06.82.726 0 1.367-.143 1.921-.426a4.487 4.487 0 0 0 1.417-1.13c.388-.455.683-.984.887-1.587zm-1.257-2.097c0 .581-.059 1.148-.176 1.702a6.017 6.017 0 0 1-.503 1.472c-.218.44-.505.8-.854 1.085-.35.286-.752.43-1.206.43-.509 0-.889-.188-1.142-.563-.25-.375-.376-.927-.376-1.655a8.4 8.4 0 0 1 .146-1.504 5.85 5.85 0 0 1 .457-1.48c.27-.587.592-1.008.965-1.27.374-.259.77-.39 1.195-.39.481 0 .851.181 1.108.543.257.362.386.906.386 1.63zm-3.633-5.363a.95.95 0 0 0 .188-.58.796.796 0 0 0-.319-.646c-.212-.168-.544-.253-.993-.253-.389 0-.795.091-1.216.277a3.779 3.779 0 0 0-1.13.767 5.43 5.43 0 0 0-.905 1.205 5.55 5.55 0 0 0-.583 1.595l-.109.52h-1.477l-.16.704h1.493l-1.417 6.615c-.204.928-.443 1.643-.72 2.144-.278.5-.614.766-1.006.796a62.103 62.103 0 0 1-.234-.38 2.889 2.889 0 0 0-.239-.349 1.248 1.248 0 0 0-.317-.267.812.812 0 0 0-.416-.107c-.25 0-.443.085-.575.253a.918.918 0 0 0-.199.58c0 .257.107.472.318.643.211.17.541.256.988.256.815 0 1.607-.36 2.376-1.08.77-.719 1.272-1.647 1.512-2.78l1.354-6.324h1.913l.161-.705h-1.93l.171-.808c.216-1.042.46-1.787.734-2.235.271-.447.585-.678.936-.693.095.136.172.261.233.372.061.112.143.231.248.358.091.11.196.201.314.27a.81.81 0 0 0 .416.102c.266 0 .463-.083.59-.25zm-13.298 7.853l2.14-9.219-.077-.113-2.849.167-.107.475c.17.021.336.038.5.053.165.016.3.046.406.092.113.052.2.126.263.226.06.1.091.241.091.426a.998.998 0 0 1-.02.23c-.013.061-.035.171-.07.33l-1.866 8.068a11.6 11.6 0 0 0-.095.482c-.024.13-.035.25-.035.368 0 .311.105.573.316.785.214.213.523.318.932.318.31 0 .59-.039.838-.117.25-.077.601-.209 1.06-.396l.115-.498a2.21 2.21 0 0 1-.454.098 3.681 3.681 0 0 1-.456.04c-.289 0-.5-.054-.629-.16-.129-.108-.195-.307-.195-.598 0-.122.021-.28.06-.474.043-.194.086-.389.132-.583zm-4.229 1.631c-.122-.103-.184-.3-.184-.589 0-.109.022-.275.065-.505.044-.226.087-.419.127-.578l1.16-4.95-.095-.116-1.403.361a3.032 3.032 0 0 0-.779-.324 3.705 3.705 0 0 0-1.039-.144c-.573 0-1.13.14-1.673.42a4.591 4.591 0 0 0-1.403 1.1 5.491 5.491 0 0 0-.974 1.614 4.982 4.982 0 0 0-.354 1.85c0 .921.211 1.65.635 2.181.423.532 1.005.798 1.748.798.276 0 .533-.047.768-.142.237-.095.454-.208.654-.336a3.77 3.77 0 0 0 .55-.406c.157-.142.29-.259.403-.352h.054c.02.333.135.608.352.822.214.214.502.322.871.322a2.4 2.4 0 0 0 .82-.124c.222-.083.565-.217 1.024-.404l.114-.498a2.174 2.174 0 0 1-.412.106 2.584 2.584 0 0 1-.41.047c-.289 0-.496-.052-.619-.153zm-.647-4.957l-.975 4.128c-.396.404-.752.688-1.07.848a1.999 1.999 0 0 1-.907.242c-.284 0-.519-.053-.704-.162a1.056 1.056 0 0 1-.424-.453 2.101 2.101 0 0 1-.208-.659 5.497 5.497 0 0 1-.055-.829c0-.568.086-1.128.255-1.68a5.123 5.123 0 0 1 .656-1.414c.284-.414.6-.743.957-.989.353-.245.718-.369 1.094-.369.272 0 .5.04.68.116.181.077.321.18.423.307.113.132.187.276.225.43.036.153.053.314.053.484zm-6.818 5.444l.116-.502a2.288 2.288 0 0 1-.419.113 2.28 2.28 0 0 1-.419.055c-.294 0-.502-.052-.63-.156-.129-.106-.194-.303-.194-.595 0-.117.023-.282.065-.494.044-.212.088-.4.134-.564l.644-2.46c.062-.229.105-.463.134-.696.028-.236.042-.4.042-.492 0-.46-.136-.83-.412-1.115-.275-.283-.657-.426-1.145-.426-.52 0-.98.108-1.39.327-.408.22-.889.553-1.45 1.005h-.046c-.01-.388-.1-.69-.275-.91-.175-.22-.464-.33-.867-.33a2.9 2.9 0 0 0-.79.134 7.838 7.838 0 0 0-1.06.406l-.114.501c.096-.028.23-.063.404-.105.172-.04.316-.063.428-.063.291 0 .482.05.58.145.098.097.145.29.145.575 0 .142-.024.33-.073.561-.048.232-.086.41-.11.532l-1.146 4.956h1.432l1.307-5.62a3.8 3.8 0 0 1 1.08-.889c.381-.204.727-.307 1.034-.307.318 0 .557.1.72.3.161.2.243.47.243.812 0 .11-.017.251-.052.43a8.206 8.206 0 0 1-.134.598l-.757 2.86a4.75 4.75 0 0 0-.098.477c-.022.137-.032.26-.032.373 0 .313.103.574.31.785.205.214.517.318.93.318.261 0 .522-.042.781-.129.26-.086.62-.224 1.084-.41zm-8.778-9.74a.987.987 0 0 0 .184-.548c0-.352-.152-.634-.463-.846-.31-.21-.804-.316-1.484-.316-.529 0-1.04.107-1.528.327-.49.218-.868.442-1.14.67-.542.454-.942.913-1.202 1.38-.263.464-.472 1.042-.63 1.734l-.053.252h-1.47l-.162.705h1.491l-1.413 6.615c-.205.928-.447 1.643-.725 2.144-.279.5-.615.766-1.008.796-.068-.106-.144-.233-.236-.38a2.889 2.889 0 0 0-.239-.349 1.283 1.283 0 0 0-.32-.267.818.818 0 0 0-.42-.107c-.255 0-.448.085-.578.253a.922.922 0 0 0-.197.58c0 .257.107.472.318.643.212.17.543.256.994.256.806 0 1.597-.369 2.373-1.104.777-.735 1.285-1.654 1.524-2.756l1.343-6.324h2.881c.033.066.054.127.074.18a.604.604 0 0 1 .026.18 1.568 1.568 0 0 1-.039.337l-1.016 4.27c-.046.204-.08.367-.099.487-.02.12-.03.241-.03.364 0 .313.1.574.303.785.205.214.512.318.92.318.2 0 .44-.038.72-.112.28-.074.655-.209 1.127-.4l.114-.498a2.124 2.124 0 0 1-.41.097c-.179.027-.316.04-.41.04-.287 0-.495-.053-.624-.16-.13-.108-.195-.307-.195-.6 0-.122.02-.28.063-.478.038-.196.084-.39.13-.58l1.18-4.957-.085-.116-1.957.138h-2.53l.156-.7c.13-.596.295-1.09.493-1.485a3.31 3.31 0 0 1 .666-.94c.287-.27.546-.445.775-.523.231-.08.498-.119.801-.119h.238c.046.138.094.294.147.471.05.176.118.333.2.471a.994.994 0 0 0 .338.33c.138.08.32.121.546.121a.602.602 0 0 0 .538-.279zm-13.366 7.23a5.61 5.61 0 0 0 .306-1.809c0-.9-.256-1.627-.768-2.182-.51-.554-1.222-.83-2.128-.83-.658 0-1.268.136-1.83.408a4.293 4.293 0 0 0-1.417 1.08 5.272 5.272 0 0 0-1.24 3.447c0 .924.266 1.661.79 2.208.53.546 1.215.82 2.06.82.73 0 1.37-.143 1.924-.426a4.505 4.505 0 0 0 1.416-1.13 4.81 4.81 0 0 0 .887-1.587zm-1.256-2.098c0 .581-.06 1.148-.176 1.702a5.975 5.975 0 0 1-.503 1.472c-.22.44-.506.8-.856 1.085-.35.286-.752.43-1.205.43-.508 0-.888-.188-1.139-.563-.253-.375-.378-.927-.378-1.655 0-.46.05-.96.143-1.504.097-.542.25-1.037.46-1.48.27-.587.59-1.008.963-1.27.374-.259.773-.39 1.194-.39.484 0 .854.181 1.111.543.257.362.386.906.386 1.63zm-5.465-2.479h-2.129l.517-2.25h-1.378l-.534 2.25h-1.4l-.16.705h1.37l-1.195 5.12a8.96 8.96 0 0 0-.062.358 2.195 2.195 0 0 0-.022.332c0 .367.112.65.336.847.225.197.581.295 1.065.295.43 0 .802-.05 1.117-.15.317-.1.654-.22 1.013-.359l.13-.563a2.47 2.47 0 0 1-.562.132 4.274 4.274 0 0 1-.557.052c-.369 0-.623-.064-.762-.196-.143-.129-.21-.335-.21-.617 0-.127.014-.282.046-.463.03-.182.067-.369.114-.563l.988-4.225h2.114l.161-.705zm-9.166 0h-2.13l.521-2.25h-1.379l-.535 2.25h-1.399l-.163.705h1.372l-1.195 5.12c-.024.134-.045.252-.06.358a2.191 2.191 0 0 0-.024.332c0 .367.113.65.337.847.226.197.58.295 1.065.295.43 0 .801-.05 1.118-.15.315-.1.652-.22 1.01-.359l.132-.563c-.134.054-.32.098-.56.132a4.34 4.34 0 0 1-.56.052c-.367 0-.622-.064-.762-.196-.14-.129-.21-.335-.21-.617 0-.127.014-.282.045-.463.031-.182.07-.369.115-.563l.988-4.225h2.115l.16-.705zm-6.337 1.506a.874.874 0 0 0 .212-.568.818.818 0 0 0-.254-.622 1.635 1.635 0 0 0-.613-.363 3.4 3.4 0 0 0-.755-.167 7.549 7.549 0 0 0-.645-.03c-.852 0-1.57.238-2.156.717-.585.477-.876 1.044-.876 1.7 0 .306.057.572.17.797.111.225.26.42.443.583.153.143.357.277.612.402s.478.22.666.281c.525.174.922.364 1.187.571.265.207.398.485.398.831 0 .47-.142.842-.424 1.117-.284.276-.702.412-1.253.412-.256 0-.45-.038-.586-.11a1.18 1.18 0 0 1-.317-.24 17.463 17.463 0 0 1-.15-.45 2.365 2.365 0 0 0-.203-.473 1.084 1.084 0 0 0-.294-.33c-.126-.096-.29-.142-.494-.142a.68.68 0 0 0-.544.267.881.881 0 0 0-.223.574c0 .434.253.785.757 1.054.502.267 1.132.401 1.89.401.91 0 1.664-.244 2.261-.733.598-.488.896-1.12.896-1.898 0-.475-.156-.874-.473-1.196-.316-.323-.824-.609-1.523-.859-.539-.194-.926-.383-1.158-.565-.235-.18-.35-.452-.35-.809 0-.366.127-.684.385-.95.26-.267.64-.402 1.143-.402.127 0 .23.008.307.022.078.016.164.043.262.084.06.152.116.306.17.463.05.157.117.302.2.44a.986.986 0 0 0 .305.325c.124.083.28.123.47.123a.69.69 0 0 0 .557-.257zm-7.09 1.251c.34-.39.508-.857.508-1.4 0-.468-.177-.85-.53-1.152-.357-.3-.902-.45-1.639-.45-.664 0-1.27.146-1.82.438a4.383 4.383 0 0 0-1.392 1.151 5.392 5.392 0 0 0-.886 1.61 5.65 5.65 0 0 0-.303 1.846c0 .933.24 1.651.716 2.158.48.507 1.17.76 2.076.76.66 0 1.294-.187 1.91-.558a4.806 4.806 0 0 0 1.531-1.493l-.436-.323c-.378.504-.76.882-1.152 1.136a2.435 2.435 0 0 1-1.352.381c-.577 0-1.015-.213-1.314-.637-.297-.426-.446-1.04-.446-1.844a16.961 16.961 0 0 0 1.608-.269c.484-.108.963-.249 1.44-.423.646-.232 1.141-.542 1.48-.93zm-.886-1.588c0 .475-.102.884-.31 1.227-.207.344-.524.625-.95.845-.297.152-.67.276-1.123.37-.45.094-.855.167-1.214.217.138-1.002.467-1.84.987-2.513.52-.673 1.088-1.009 1.703-1.009.108 0 .213.008.316.024.102.014.2.053.293.115a.613.613 0 0 1 .214.256c.057.114.084.27.084.468zm-5.49.305c.04-.17.06-.329.06-.47 0-.267-.029-.469-.082-.61a1 1 0 0 0-.249-.37.938.938 0 0 0-.393-.207 1.75 1.75 0 0 0-1.462.253c-.315.211-.779.581-1.386 1.11h-.047c0-.445-.088-.777-.259-1-.175-.222-.465-.333-.873-.333-.219 0-.48.045-.788.134a7.758 7.758 0 0 0-1.056.406l-.113.501c.096-.028.23-.063.404-.105.172-.04.315-.063.427-.063.291 0 .483.05.581.145.095.097.144.29.144.575 0 .115-.024.298-.073.542l-.11.551-1.113 4.956h1.43l1.23-5.482c.288-.322.56-.58.814-.774a4.22 4.22 0 0 1 .686-.437c.202-.097.373-.16.514-.195.14-.033.241-.049.303-.049a17.34 17.34 0 0 0-.237.583 1.462 1.462 0 0 0-.116.53c0 .167.07.321.205.457.138.138.342.205.616.205.202 0 .358-.037.467-.11.11-.074.208-.18.3-.318.075-.11.133-.254.175-.425zM76.16 46.54a5.66 5.66 0 0 0 .304-1.808c0-.9-.256-1.627-.768-2.182-.512-.554-1.22-.83-2.129-.83-.655 0-1.265.136-1.829.408a4.366 4.366 0 0 0-1.417 1.08 5.318 5.318 0 0 0-1.238 3.448c0 .923.264 1.66.791 2.207.528.546 1.214.82 2.06.82.73 0 1.37-.143 1.921-.426a4.48 4.48 0 0 0 1.418-1.13c.388-.455.682-.984.887-1.587zm-1.257-2.097c0 .581-.057 1.148-.176 1.702a6.017 6.017 0 0 1-.502 1.472c-.22.44-.504.8-.855 1.085a1.858 1.858 0 0 1-1.206.43c-.509 0-.89-.188-1.142-.563-.25-.375-.376-.927-.376-1.655 0-.46.047-.96.144-1.504a5.933 5.933 0 0 1 .458-1.48c.27-.587.591-1.008.965-1.27.374-.259.772-.39 1.195-.39.484 0 .852.181 1.11.543.256.362.385.906.385 1.63zM71.27 39.08a.939.939 0 0 0 .19-.58.797.797 0 0 0-.318-.646c-.213-.168-.542-.253-.994-.253-.389 0-.793.091-1.215.277-.423.185-.8.441-1.132.767a5.521 5.521 0 0 0-1.488 2.8l-.108.52h-1.476l-.16.704h1.493l-1.417 6.615c-.204.928-.444 1.643-.722 2.144-.277.5-.612.766-1.006.796-.065-.106-.143-.233-.23-.38a2.756 2.756 0 0 0-.243-.349 1.243 1.243 0 0 0-.316-.267.812.812 0 0 0-.418-.107c-.249 0-.44.085-.573.253a.911.911 0 0 0-.198.58c0 .257.105.472.316.643.211.17.541.256.99.256.815 0 1.607-.36 2.377-1.08.767-.719 1.27-1.647 1.51-2.78l1.354-6.324h1.912l.163-.705h-1.932l.171-.808c.217-1.042.461-1.787.734-2.235.273-.447.586-.678.94-.693.091.136.17.261.23.372.063.112.145.231.247.358.091.11.196.201.315.27a.811.811 0 0 0 .417.102c.267 0 .461-.083.587-.25zm-11.847 9.997l.117-.497c-.1.037-.24.07-.425.097a3.13 3.13 0 0 1-.423.04c-.294 0-.5-.052-.624-.156-.122-.106-.184-.303-.184-.595 0-.117.02-.282.06-.494.041-.212.086-.4.133-.564l.643-2.46c.06-.229.107-.463.133-.696.028-.236.043-.4.043-.492 0-.46-.13-.83-.394-1.115-.259-.283-.635-.426-1.124-.426-.564 0-1.057.118-1.483.354-.422.233-.907.578-1.452 1.033h-.028a1.507 1.507 0 0 0-.48-.992c-.285-.263-.655-.395-1.108-.395-.537 0-.999.103-1.388.307-.388.204-.883.544-1.486 1.02h-.047c-.01-.38-.099-.683-.273-.902-.17-.223-.46-.333-.87-.333-.22 0-.485.044-.79.131a7.94 7.94 0 0 0-1.06.402l-.116.493c.097-.028.233-.06.41-.104.174-.043.32-.064.433-.064.278 0 .467.047.565.14.096.095.145.291.145.587 0 .143-.019.316-.059.521-.038.204-.078.396-.118.574l-1.147 4.962h1.432l1.31-5.627c.46-.502.867-.826 1.217-.97.351-.145.672-.219.962-.219.32 0 .563.096.73.285.163.187.247.45.247.781 0 .061-.012.155-.034.278l-.073.358-1.206 5.114h1.423l1.343-5.68c.41-.436.775-.735 1.101-.895a2.23 2.23 0 0 1 .995-.24c.317 0 .55.1.696.298.147.2.222.471.222.813 0 .11-.018.251-.052.43a9.355 9.355 0 0 1-.133.598l-.758 2.86a5.384 5.384 0 0 0-.098.477c-.022.137-.032.26-.032.373 0 .313.104.574.31.785.205.214.516.318.93.318a3 3 0 0 0 .728-.112c.281-.074.662-.209 1.137-.4zM45.67 46.54a5.636 5.636 0 0 0 .306-1.808c0-.9-.255-1.627-.77-2.182-.51-.554-1.22-.83-2.127-.83-.657 0-1.267.136-1.83.408a4.339 4.339 0 0 0-1.418 1.08 5.24 5.24 0 0 0-.9 1.546 5.275 5.275 0 0 0-.337 1.901c0 .924.263 1.661.791 2.208.528.546 1.214.82 2.06.82.727 0 1.37-.143 1.921-.426a4.513 4.513 0 0 0 1.418-1.13c.386-.455.681-.984.886-1.587zm-1.257-2.097c0 .581-.058 1.148-.175 1.702a5.854 5.854 0 0 1-.504 1.472 3.23 3.23 0 0 1-.854 1.085 1.859 1.859 0 0 1-1.205.43c-.51 0-.889-.188-1.14-.563-.254-.375-.377-.927-.377-1.655 0-.46.048-.96.143-1.504a5.851 5.851 0 0 1 .458-1.48c.27-.587.591-1.008.965-1.27.374-.259.773-.39 1.193-.39.485 0 .855.181 1.111.543.257.362.385.906.385 1.63zm-6.15-1.005c.04-.17.061-.329.061-.47 0-.267-.028-.469-.083-.61a1.022 1.022 0 0 0-.248-.37.938.938 0 0 0-.393-.207 1.743 1.743 0 0 0-1.462.253c-.317.211-.778.581-1.388 1.11h-.045c0-.445-.086-.777-.26-1-.174-.222-.465-.333-.873-.333-.22 0-.48.045-.786.134-.307.088-.66.224-1.057.406l-.115.501c.096-.028.233-.063.404-.105.174-.04.316-.063.427-.063.29 0 .486.05.581.145.097.097.146.29.146.575 0 .115-.025.298-.072.542l-.112.551-1.114 4.956h1.43l1.231-5.482c.287-.322.561-.58.816-.774.255-.193.483-.34.685-.437.201-.097.372-.16.512-.195.142-.033.243-.049.305-.049-.082.193-.163.387-.24.583a1.496 1.496 0 0 0-.113.53c0 .167.067.321.205.457.136.138.341.205.615.205.202 0 .36-.037.468-.11.107-.074.21-.18.297-.318a1.22 1.22 0 0 0 .177-.425zm-5.297-4.358a.945.945 0 0 0 .19-.58.795.795 0 0 0-.319-.646c-.213-.168-.543-.253-.993-.253-.388 0-.794.091-1.217.277a3.775 3.775 0 0 0-1.13.767c-.337.331-.64.733-.905 1.205a5.548 5.548 0 0 0-.582 1.595l-.112.52h-1.475l-.159.704h1.493l-1.416 6.615c-.204.928-.446 1.643-.72 2.144-.28.5-.615.766-1.008.796a36.085 36.085 0 0 1-.233-.38 3 3 0 0 0-.24-.349 1.278 1.278 0 0 0-.316-.267.82.82 0 0 0-.418-.107c-.25 0-.44.085-.573.253a.912.912 0 0 0-.199.58c0 .257.105.472.318.643.211.17.54.256.988.256.814 0 1.605-.36 2.375-1.08.768-.719 1.272-1.647 1.514-2.78l1.353-6.324h1.914l.16-.705h-1.93l.171-.808c.215-1.042.46-1.787.731-2.235.273-.447.586-.678.94-.693.094.136.17.261.231.372.062.112.144.231.247.358.092.11.197.201.316.27a.809.809 0 0 0 .415.102c.267 0 .463-.083.59-.25zM227.477 10.755c0-.531-.187-.985-.563-1.36a1.85 1.85 0 0 0-1.359-.562c-.536 0-.989.188-1.366.563a1.85 1.85 0 0 0-.566 1.359c0 .534.19.986.566 1.359.377.372.83.558 1.366.558.531 0 .985-.186 1.36-.558a1.84 1.84 0 0 0 .562-1.36zm-.314-.011c0 .452-.153.835-.467 1.153a1.543 1.543 0 0 1-1.14.476c-.448 0-.829-.158-1.145-.476a1.573 1.573 0 0 1-.473-1.153c0-.44.157-.818.473-1.134a1.557 1.557 0 0 1 1.144-.473c.447 0 .827.157 1.141.473.314.316.467.695.467 1.134zm-.966-.034c.127-.095.192-.248.192-.46 0-.231-.079-.385-.238-.458a1.213 1.213 0 0 0-.529-.111h-.938v2.154h.301v-.943h.421l.614.943h.34l-.643-.974a.85.85 0 0 0 .48-.151zm-.113-.463a.388.388 0 0 1-.102.269c-.068.079-.212.118-.43.118h-.567v-.697h.64c.026 0 .05.002.071.006.1.006.188.03.27.07.08.04.118.118.118.234zm-5.086 6.793s.798-4.693.798-5.123c.026-1.087-.227-1.992-.759-2.712-.53-.721-1.555-1.082-3.072-1.082-1.216 0-2.297.24-3.245.72-.949.48-1.767 1.29-2.448 2.43h-.266l.607-2.712h-6.805l-4.2 19.653h6.992l2.533-11.896c.178-.81.42-1.296 1.001-1.881.66-.658 1.128-.682 1.488-.682.506 0 .855.112 1.043.34.19.229.32.52.285.873-.05.559-.454 2.072-.454 2.072h6.502zm-19.13-1.143c.1-.766.15-1.463.15-2.093 0-2.163-.634-3.628-1.906-4.394-1.269-.767-3.337-1.15-6.205-1.15-3.972 0-6.739.734-8.299 2.206-1.558 1.47-2.742 4.118-3.545 7.94-.177.855-.32 1.66-.435 2.415a14.072 14.072 0 0 0-.168 2.074c0 2.013.614 3.446 1.846 4.3 1.234.857 3.333 1.283 6.301 1.283 1.432 0 2.761-.07 3.98-.207 1.221-.137 2.295-.445 3.225-.924a7.001 7.001 0 0 0 2.414-2.093c.655-.895 1.145-2.081 1.472-3.565l-6.908-.006c-.16.83-.477 1.246-.944 1.425-.589.226-1.362.34-2.296.34-1.006 0-1.456-.177-1.658-.327-.242-.18-.366-.548-.366-1.093v-.021l-.003-.02a4.345 4.345 0 0 1 .07-.975l.18-.97h12.294s.194-.872.348-1.635c.155-.763.351-1.741.453-2.51zm-6.936.02h-5.268c.28-.881.798-1.89 1.014-2.054.277-.21.872-.46 2.135-.46.805 0 1.501-.051 1.848.23.707.567.438.923.271 2.285zm-13.773-1.711l1.16-5.645H165.91l-1.009 4.942h7.945l-10.482 9.106-1.235 5.612h17.054l1.06-4.98h-8.61l10.526-9.035zM164.082 4.98L165.14 0h-7.044l-1.055 4.98h7.042zm-.746 3.58h-7.023l-4.206 19.673 6.964-.02 4.265-19.653zm-13.959 19.68L155.364 0h-12.55l-8.705 17.114L132.357 0h-12.249l-5.987 28.242h8.153l3.471-20.095 2.61 20.095h7.244l10.9-20.095-4.964 20.095h7.842zm-35.596-7.305l1.33-6.273h-10.28l-1.33 6.273h10.28zm-13.733 7.355L106.046 0h-7.11l-2.377 11.317h-.302c-.25-1.283-.829-2.112-1.737-2.491-.903-.377-1.947-.564-3.128-.564-2.716 0-4.785.652-6.205 1.96-1.42 1.308-2.459 3.47-3.112 6.489l-.945 4.526a12.37 12.37 0 0 0-.225 1.245c-.05.4-.075.778-.075 1.13 0 1.76.547 3.012 1.64 3.754 1.095.742 2.634 1.112 4.622 1.112 1.408 0 2.66-.233 3.753-.698 1.093-.464 1.98-1.44 2.66-2.922h.3l-.866 3.433h7.109zm-4.515-11.858c-.07.62-.425 2.068-.425 2.068-.189.855-.51 1.713-.844 2.525-.149.36-.357.864-.662 1.117-.934.777-2.119.887-2.762.934-.716.052-1.674.039-2.14-.538-.18-.223-.26-.54-.138-1.638.044-.392.206-1.565.488-2.772a23.01 23.01 0 0 1 .913-2.958c.107-.266.367-.676.603-.851.324-.236.624-.333 1.012-.39.713-.1 1.9-.077 2.608.04.265.045.876.229 1.035.473.25.383.444.81.312 1.99zm-15.54-.865a15.98 15.98 0 0 0 .188-2.302c0-2.015-.636-3.356-1.909-4.023-1.27-.666-3.467-1-6.588-1-4.13 0-6.955.679-8.479 2.039-1.522 1.359-2.713 4.065-3.568 8.119-.2.957-.36 1.83-.472 2.625a15.47 15.47 0 0 0-.169 2.17c0 2.039.63 3.43 1.887 4.174 1.26.74 3.425 1.113 6.495 1.113 4.13 0 6.962-.661 8.497-1.981 1.536-1.323 2.731-4.023 3.588-8.101.226-1.033.402-1.977.53-2.833zm-7.314-.453c0 .336-.04.757-.12 1.253l-.354 1.875-.219.95-.187.82c-.435 1.563-.866 2.1-1.084 2.283-.255.21-.837.46-2.167.46-1.199 0-1.679-.17-1.859-.273-.234-.134-.269-.603-.269-.872 0-.335.042-.75.122-1.231l.351-1.817.15-.711.148-.622c.442-1.836.915-2.47 1.158-2.684.277-.247.918-.541 2.39-.541 1.163 0 1.578.182 1.703.26.151.094.237.404.237.85zm-15.057.453a15.98 15.98 0 0 0 .19-2.302c0-2.015-.637-3.356-1.908-4.023-1.27-.666-3.468-1-6.59-1-4.128 0-6.953.679-8.478 2.039-1.523 1.359-2.712 4.065-3.569 8.119a40.907 40.907 0 0 0-.47 2.625 15.493 15.493 0 0 0-.172 2.17c0 2.039.63 3.43 1.89 4.174 1.257.74 3.422 1.113 6.494 1.113 4.128 0 6.961-.661 8.496-1.981 1.537-1.323 2.733-4.023 3.588-8.101.227-1.033.403-1.977.53-2.833zm-7.31-.453c0 .336-.042.757-.123 1.253l-.353 1.875-.22.95-.186.82c-.435 1.563-.866 2.1-1.085 2.283-.255.21-.835.46-2.165.46-1.2 0-1.682-.17-1.859-.273-.236-.134-.27-.603-.27-.872 0-.335.04-.75.12-1.231l.352-1.817.151-.711.146-.622c.445-1.836.917-2.47 1.16-2.684.276-.247.918-.541 2.39-.541 1.163 0 1.577.182 1.701.26.152.094.24.404.24.85zm-20.393 13.1L42.145 0H33.65l-7.736 19.253L25.652 0h-9.07L7.67 19.253 8.196 0H0l.05 28.215h10.76l7.862-17.68h.3l.076 17.68H29.92z"/>
    </g>
</svg>
